<svg width="475.0008888888889" height="416" xmlns="http://www.w3.org/2000/svg" xmlns:svg="http://www.w3.org/2000/svg">
 <!-- Created with SVG-edit - http://svg-edit.googlecode.com/ -->
 <title>SSR</title>
 <g>
  <title>Layer 1</title>
  <g stroke="null" id="svg_17">
   <ellipse ry="208" rx="237.667" cy="208" cx="237.667" stroke-width="5" stroke-linejoin="null" stroke-linecap="null" stroke-dasharray="null" stroke="#000000" fill="#e8bb19" id="svg_12"/>
   <g stroke="null" id="svg_4">
    <path d="m230.275497,219.547577l0,0c-26.383331,-11.61615 -38.414612,-39.981506 -26.87262,-63.355835c11.541992,-23.374329 42.28653,-32.906219 68.669876,-21.29007l-10.449341,21.161469c-13.191666,-5.80806 -28.56395,-1.042114 -34.334915,10.64505c-5.771027,11.687164 0.244629,25.869843 13.43631,31.677917l-10.44931,21.161469z" stroke-width="5" stroke="#000000" fill="#000000" id="svg_2"/>
    <path d="m237.41362,196.729492l0,0c25.794083,12.784241 36.766617,41.026093 24.507828,63.079926c-12.258835,22.053864 -43.106796,29.568359 -68.900894,16.784149l11.098267,-19.966003c12.897064,6.39212 28.321045,2.634827 34.450439,-8.392059c6.129395,-11.026947 0.643158,-25.147858 -12.253906,-31.539978l11.098267,-19.966003l0,-0.000031z" stroke-width="5" stroke="#000000" fill="#000000" id="svg_3"/>
   </g>
   <g stroke="null" id="svg_5">
    <path d="m119.524246,214.486847l0,0c-26.383331,-11.61615 -38.414612,-39.981506 -26.87262,-63.355835c11.541992,-23.374329 42.28653,-32.906235 68.669891,-21.290085l-10.44931,21.161499c-13.191681,-5.80809 -28.563965,-1.04213 -34.334961,10.645035c-5.770996,11.687164 0.244629,25.869843 13.43631,31.677917l-10.44931,21.161469z" stroke-width="5" stroke="#000000" fill="#000000" id="svg_6"/>
    <path d="m126.662369,191.668732l0,0c25.794098,12.784241 36.766602,41.026093 24.507782,63.079926c-12.258789,22.053833 -43.10675,29.568359 -68.900848,16.784119l11.098267,-19.966003c12.897034,6.39212 28.321014,2.634857 34.450409,-8.392059c6.129425,-11.026917 0.643158,-25.147858 -12.253876,-31.539978l11.098267,-19.966003z" stroke-width="5" stroke="#000000" fill="#000000" id="svg_7"/>
   </g>
   <g stroke="null" id="svg_11">
    <path d="m301.437805,139.14798l0,0c22.560242,-15.967621 54.325043,-11.934998 70.948669,9.007095c16.623657,20.942093 11.811096,50.863327 -10.749084,66.830948l-15.049927,-18.959503c11.280151,-7.983795 13.686401,-22.944427 5.374603,-33.415466c-8.311859,-10.471054 -24.194244,-12.487381 -35.474335,-4.503571l-15.049927,-18.959503z" stroke-width="5" stroke="#ffffff" fill="#ffffff" id="svg_8"/>
    <path d="m422.808167,252.643158l0,0c-16.090942,19.670898 -46.275879,23.115448 -67.419922,7.693634c-21.144043,-15.421844 -25.240356,-43.870117 -9.149414,-63.541016l19.142334,13.961853c-8.045471,9.835449 -5.997314,24.05957 4.574707,31.770477c10.572021,7.710938 25.66449,5.988647 33.709961,-3.846802l19.142334,13.961853l0,0z" stroke-width="5" stroke-linejoin="null" stroke-linecap="null" stroke-dasharray="null" stroke="#ffffff" fill="#ffffff" id="svg_9"/>
   </g>
  </g>
 </g>
</svg>